<mxfile host="Electron" agent="Mozilla/5.0 (Windows NT 10.0; Win64; x64) AppleWebKit/537.36 (KHTML, like Gecko) draw.io/28.1.2 Chrome/138.0.7204.243 Electron/37.4.0 Safari/537.36" version="28.1.2">
  <diagram name="Page-1" id="s8KyyMRnyPz0dVKfosfm">
    <mxGraphModel dx="1042" dy="626" grid="1" gridSize="10" guides="1" tooltips="1" connect="1" arrows="1" fold="1" page="1" pageScale="1" pageWidth="827" pageHeight="1169" math="0" shadow="0">
      <root>
        <mxCell id="0" />
        <mxCell id="1" parent="0" />
        <mxCell id="pdIgpOkd1cclmhklui2e-1" value="Actor" style="shape=umlActor;verticalLabelPosition=bottom;verticalAlign=top;html=1;outlineConnect=0;labelBackgroundColor=none;fillColor=#5D7F99;strokeColor=#D0CEE2;fontColor=#1A1A1A;" parent="1" vertex="1">
          <mxGeometry x="80" y="150" width="30" height="60" as="geometry" />
        </mxCell>
        <mxCell id="pdIgpOkd1cclmhklui2e-2" value="Actor" style="shape=umlActor;verticalLabelPosition=bottom;verticalAlign=top;html=1;outlineConnect=0;labelBackgroundColor=none;fillColor=#5D7F99;strokeColor=#D0CEE2;fontColor=#1A1A1A;" parent="1" vertex="1">
          <mxGeometry x="80" y="280" width="30" height="60" as="geometry" />
        </mxCell>
        <mxCell id="pdIgpOkd1cclmhklui2e-3" value="Actor" style="shape=umlActor;verticalLabelPosition=bottom;verticalAlign=top;html=1;outlineConnect=0;labelBackgroundColor=none;fillColor=#5D7F99;strokeColor=#D0CEE2;fontColor=#1A1A1A;" parent="1" vertex="1">
          <mxGeometry x="80" y="410" width="30" height="60" as="geometry" />
        </mxCell>
        <mxCell id="pdIgpOkd1cclmhklui2e-11" value="" style="swimlane;startSize=0;labelBackgroundColor=none;fillColor=#5D7F99;strokeColor=#D0CEE2;fontColor=#1A1A1A;" parent="1" vertex="1">
          <mxGeometry x="200" y="105" width="264" height="405" as="geometry" />
        </mxCell>
        <mxCell id="pdIgpOkd1cclmhklui2e-17" value="create, edit, delete,&lt;div&gt;&amp;nbsp;upload document&lt;/div&gt;" style="html=1;shape=mxgraph.sysml.useCaseExtPt;whiteSpace=wrap;align=center;labelBackgroundColor=none;fillColor=#5D7F99;strokeColor=#D0CEE2;fontColor=#1A1A1A;" parent="pdIgpOkd1cclmhklui2e-11" vertex="1">
          <mxGeometry x="54" y="135" width="160" height="80" as="geometry" />
        </mxCell>
        <mxCell id="pdIgpOkd1cclmhklui2e-18" value="Manage Contracts" style="resizable=0;html=1;verticalAlign=middle;align=center;labelBackgroundColor=none;fontStyle=1;fillColor=#5D7F99;strokeColor=#D0CEE2;fontColor=#1A1A1A;" parent="pdIgpOkd1cclmhklui2e-17" connectable="0" vertex="1">
          <mxGeometry x="80" y="17" as="geometry">
            <mxPoint y="-5" as="offset" />
          </mxGeometry>
        </mxCell>
        <mxCell id="pdIgpOkd1cclmhklui2e-21" value="Access Dashboard" style="ellipse;whiteSpace=wrap;html=1;labelBackgroundColor=none;fillColor=#5D7F99;strokeColor=#D0CEE2;fontColor=#1A1A1A;" parent="pdIgpOkd1cclmhklui2e-11" vertex="1">
          <mxGeometry x="62" y="15" width="138" height="45" as="geometry" />
        </mxCell>
        <mxCell id="pdIgpOkd1cclmhklui2e-22" value="Download Document" style="ellipse;whiteSpace=wrap;html=1;labelBackgroundColor=none;fillColor=#5D7F99;strokeColor=#D0CEE2;fontColor=#1A1A1A;" parent="pdIgpOkd1cclmhklui2e-11" vertex="1">
          <mxGeometry x="67" y="75" width="128" height="35" as="geometry" />
        </mxCell>
        <mxCell id="pdIgpOkd1cclmhklui2e-23" value="role, and delete users" style="html=1;shape=mxgraph.sysml.useCaseExtPt;whiteSpace=wrap;align=center;labelBackgroundColor=none;fillColor=#5D7F99;strokeColor=#D0CEE2;fontColor=#1A1A1A;" parent="pdIgpOkd1cclmhklui2e-11" vertex="1">
          <mxGeometry x="51" y="295" width="160" height="80" as="geometry" />
        </mxCell>
        <mxCell id="pdIgpOkd1cclmhklui2e-24" value="Manage Users" style="resizable=0;html=1;verticalAlign=middle;align=center;labelBackgroundColor=none;fontStyle=1;fillColor=#5D7F99;strokeColor=#D0CEE2;fontColor=#1A1A1A;" parent="pdIgpOkd1cclmhklui2e-23" connectable="0" vertex="1">
          <mxGeometry x="80" y="17" as="geometry">
            <mxPoint x="-5" y="1" as="offset" />
          </mxGeometry>
        </mxCell>
        <mxCell id="nvbCAyzfqYvz7mu4WBul-1" value="Create Contract Types" style="ellipse;whiteSpace=wrap;html=1;labelBackgroundColor=none;fillColor=#5D7F99;strokeColor=#D0CEE2;fontColor=#1A1A1A;" vertex="1" parent="pdIgpOkd1cclmhklui2e-11">
          <mxGeometry x="62" y="235" width="128" height="35" as="geometry" />
        </mxCell>
        <mxCell id="pdIgpOkd1cclmhklui2e-25" value="" style="edgeStyle=none;html=1;endArrow=none;verticalAlign=bottom;rounded=0;exitX=1;exitY=0.3333333333333333;exitDx=0;exitDy=0;exitPerimeter=0;entryX=0;entryY=0.5;entryDx=0;entryDy=0;labelBackgroundColor=none;strokeColor=#736CA8;fontColor=default;" parent="1" source="pdIgpOkd1cclmhklui2e-1" target="pdIgpOkd1cclmhklui2e-21" edge="1">
          <mxGeometry width="160" relative="1" as="geometry">
            <mxPoint x="360" y="350" as="sourcePoint" />
            <mxPoint x="520" y="350" as="targetPoint" />
          </mxGeometry>
        </mxCell>
        <mxCell id="pdIgpOkd1cclmhklui2e-26" value="" style="edgeStyle=none;html=1;endArrow=none;verticalAlign=bottom;rounded=0;entryX=0;entryY=0.5;entryDx=0;entryDy=0;labelBackgroundColor=none;strokeColor=#736CA8;fontColor=default;" parent="1" target="pdIgpOkd1cclmhklui2e-22" edge="1">
          <mxGeometry width="160" relative="1" as="geometry">
            <mxPoint x="110" y="170" as="sourcePoint" />
            <mxPoint x="272" y="153" as="targetPoint" />
          </mxGeometry>
        </mxCell>
        <mxCell id="pdIgpOkd1cclmhklui2e-28" value="" style="edgeStyle=none;html=1;endArrow=none;verticalAlign=bottom;rounded=0;entryX=0;entryY=0.5;entryDx=0;entryDy=0;exitX=1;exitY=0.3333333333333333;exitDx=0;exitDy=0;exitPerimeter=0;labelBackgroundColor=none;strokeColor=#736CA8;fontColor=default;" parent="1" source="pdIgpOkd1cclmhklui2e-2" target="pdIgpOkd1cclmhklui2e-21" edge="1">
          <mxGeometry width="160" relative="1" as="geometry">
            <mxPoint x="110" y="240" as="sourcePoint" />
            <mxPoint x="267" y="268" as="targetPoint" />
          </mxGeometry>
        </mxCell>
        <mxCell id="pdIgpOkd1cclmhklui2e-29" value="" style="edgeStyle=none;html=1;endArrow=none;verticalAlign=bottom;rounded=0;entryX=0;entryY=0.5;entryDx=0;entryDy=0;labelBackgroundColor=none;strokeColor=#736CA8;fontColor=default;" parent="1" target="pdIgpOkd1cclmhklui2e-22" edge="1">
          <mxGeometry width="160" relative="1" as="geometry">
            <mxPoint x="110" y="300" as="sourcePoint" />
            <mxPoint x="272" y="153" as="targetPoint" />
          </mxGeometry>
        </mxCell>
        <mxCell id="pdIgpOkd1cclmhklui2e-30" value="" style="edgeStyle=none;html=1;endArrow=none;verticalAlign=bottom;rounded=0;entryX=0.03;entryY=0.4;entryDx=0;entryDy=0;entryPerimeter=0;exitX=1;exitY=0.3333333333333333;exitDx=0;exitDy=0;exitPerimeter=0;labelBackgroundColor=none;strokeColor=#736CA8;fontColor=default;" parent="1" source="pdIgpOkd1cclmhklui2e-2" target="pdIgpOkd1cclmhklui2e-17" edge="1">
          <mxGeometry width="160" relative="1" as="geometry">
            <mxPoint x="120" y="310" as="sourcePoint" />
            <mxPoint x="277" y="208" as="targetPoint" />
          </mxGeometry>
        </mxCell>
        <mxCell id="pdIgpOkd1cclmhklui2e-31" value="" style="edgeStyle=none;html=1;endArrow=none;verticalAlign=bottom;rounded=0;entryX=0.004;entryY=0.36;entryDx=0;entryDy=0;entryPerimeter=0;exitX=1;exitY=0.3333333333333333;exitDx=0;exitDy=0;exitPerimeter=0;labelBackgroundColor=none;strokeColor=#736CA8;fontColor=default;" parent="1" source="pdIgpOkd1cclmhklui2e-3" target="pdIgpOkd1cclmhklui2e-23" edge="1">
          <mxGeometry width="160" relative="1" as="geometry">
            <mxPoint x="140" y="340" as="sourcePoint" />
            <mxPoint x="269" y="322" as="targetPoint" />
          </mxGeometry>
        </mxCell>
        <mxCell id="pdIgpOkd1cclmhklui2e-32" value="" style="edgeStyle=none;html=1;endArrow=none;verticalAlign=bottom;rounded=0;entryX=0.02;entryY=0.42;entryDx=0;entryDy=0;entryPerimeter=0;labelBackgroundColor=none;strokeColor=#736CA8;fontColor=default;" parent="1" source="pdIgpOkd1cclmhklui2e-3" target="pdIgpOkd1cclmhklui2e-17" edge="1">
          <mxGeometry width="160" relative="1" as="geometry">
            <mxPoint x="120" y="440" as="sourcePoint" />
            <mxPoint x="262" y="439" as="targetPoint" />
          </mxGeometry>
        </mxCell>
        <mxCell id="pdIgpOkd1cclmhklui2e-33" value="" style="edgeStyle=none;html=1;endArrow=none;verticalAlign=bottom;rounded=0;entryX=0;entryY=0.5;entryDx=0;entryDy=0;labelBackgroundColor=none;strokeColor=#736CA8;fontColor=default;" parent="1" target="pdIgpOkd1cclmhklui2e-22" edge="1">
          <mxGeometry width="160" relative="1" as="geometry">
            <mxPoint x="110" y="430" as="sourcePoint" />
            <mxPoint x="272" y="449" as="targetPoint" />
          </mxGeometry>
        </mxCell>
        <mxCell id="pdIgpOkd1cclmhklui2e-34" value="" style="edgeStyle=none;html=1;endArrow=none;verticalAlign=bottom;rounded=0;labelBackgroundColor=none;strokeColor=#736CA8;fontColor=default;" parent="1" edge="1">
          <mxGeometry width="160" relative="1" as="geometry">
            <mxPoint x="110" y="430" as="sourcePoint" />
            <mxPoint x="260" y="140" as="targetPoint" />
          </mxGeometry>
        </mxCell>
        <mxCell id="pdIgpOkd1cclmhklui2e-35" value="" style="ellipse;html=1;shape=endState;fillColor=#5D7F99;strokeColor=#D0CEE2;labelBackgroundColor=none;fontColor=#1A1A1A;" parent="1" vertex="1">
          <mxGeometry x="530" y="230" width="120" height="120" as="geometry" />
        </mxCell>
        <mxCell id="pdIgpOkd1cclmhklui2e-36" value="Backend API" style="text;strokeColor=none;align=center;fillColor=none;html=1;verticalAlign=middle;whiteSpace=wrap;rounded=0;labelBackgroundColor=none;fontColor=#1A1A1A;" parent="1" vertex="1">
          <mxGeometry x="560" y="275" width="60" height="30" as="geometry" />
        </mxCell>
        <mxCell id="pdIgpOkd1cclmhklui2e-37" value="" style="edgeStyle=none;html=1;endArrow=none;verticalAlign=bottom;rounded=0;exitX=1;exitY=0.5;exitDx=0;exitDy=0;entryX=0;entryY=0.5;entryDx=0;entryDy=0;labelBackgroundColor=none;strokeColor=#736CA8;fontColor=default;" parent="1" source="pdIgpOkd1cclmhklui2e-21" target="pdIgpOkd1cclmhklui2e-35" edge="1">
          <mxGeometry width="160" relative="1" as="geometry">
            <mxPoint x="540" y="497" as="sourcePoint" />
            <mxPoint x="692" y="470" as="targetPoint" />
          </mxGeometry>
        </mxCell>
        <mxCell id="pdIgpOkd1cclmhklui2e-38" value="" style="edgeStyle=none;html=1;endArrow=none;verticalAlign=bottom;rounded=0;exitX=1;exitY=0.5;exitDx=0;exitDy=0;entryX=0;entryY=0.5;entryDx=0;entryDy=0;labelBackgroundColor=none;strokeColor=#736CA8;fontColor=default;" parent="1" source="pdIgpOkd1cclmhklui2e-22" target="pdIgpOkd1cclmhklui2e-35" edge="1">
          <mxGeometry width="160" relative="1" as="geometry">
            <mxPoint x="410" y="153" as="sourcePoint" />
            <mxPoint x="590" y="320" as="targetPoint" />
          </mxGeometry>
        </mxCell>
        <mxCell id="pdIgpOkd1cclmhklui2e-39" value="" style="edgeStyle=none;html=1;endArrow=none;verticalAlign=bottom;rounded=0;exitX=1;exitY=0.5;exitDx=0;exitDy=0;exitPerimeter=0;labelBackgroundColor=none;strokeColor=#736CA8;fontColor=default;" parent="1" source="pdIgpOkd1cclmhklui2e-17" target="pdIgpOkd1cclmhklui2e-35" edge="1">
          <mxGeometry width="160" relative="1" as="geometry">
            <mxPoint x="405" y="208" as="sourcePoint" />
            <mxPoint x="590" y="320" as="targetPoint" />
          </mxGeometry>
        </mxCell>
        <mxCell id="pdIgpOkd1cclmhklui2e-40" value="" style="edgeStyle=none;html=1;endArrow=none;verticalAlign=bottom;rounded=0;exitX=1;exitY=0.5;exitDx=0;exitDy=0;entryX=0.037;entryY=0.563;entryDx=0;entryDy=0;exitPerimeter=0;entryPerimeter=0;labelBackgroundColor=none;strokeColor=#736CA8;fontColor=default;" parent="1" source="pdIgpOkd1cclmhklui2e-23" target="pdIgpOkd1cclmhklui2e-35" edge="1">
          <mxGeometry width="160" relative="1" as="geometry">
            <mxPoint x="415" y="218" as="sourcePoint" />
            <mxPoint x="600" y="330" as="targetPoint" />
          </mxGeometry>
        </mxCell>
        <mxCell id="nvbCAyzfqYvz7mu4WBul-2" value="" style="edgeStyle=none;html=1;endArrow=none;verticalAlign=bottom;rounded=0;entryX=0;entryY=0.5;entryDx=0;entryDy=0;labelBackgroundColor=none;strokeColor=#736CA8;fontColor=default;exitX=1;exitY=0.3333333333333333;exitDx=0;exitDy=0;exitPerimeter=0;" edge="1" parent="1" source="pdIgpOkd1cclmhklui2e-3" target="nvbCAyzfqYvz7mu4WBul-1">
          <mxGeometry width="160" relative="1" as="geometry">
            <mxPoint x="120" y="180" as="sourcePoint" />
            <mxPoint x="277" y="208" as="targetPoint" />
          </mxGeometry>
        </mxCell>
        <mxCell id="nvbCAyzfqYvz7mu4WBul-3" value="" style="edgeStyle=none;html=1;endArrow=none;verticalAlign=bottom;rounded=0;entryX=0;entryY=0.5;entryDx=0;entryDy=0;labelBackgroundColor=none;strokeColor=#736CA8;fontColor=default;exitX=1;exitY=0.5;exitDx=0;exitDy=0;" edge="1" parent="1" source="nvbCAyzfqYvz7mu4WBul-1" target="pdIgpOkd1cclmhklui2e-35">
          <mxGeometry width="160" relative="1" as="geometry">
            <mxPoint x="120" y="440" as="sourcePoint" />
            <mxPoint x="272" y="368" as="targetPoint" />
          </mxGeometry>
        </mxCell>
      </root>
    </mxGraphModel>
  </diagram>
</mxfile>
